<?xml version="1.0" encoding="utf-8"?>
<!-- Generator: Adobe Illustrator 21.1.0, SVG Export Plug-In . SVG Version: 6.00 Build 0)  -->
<svg version="1.1" id="Layer_1" xmlns="http://www.w3.org/2000/svg" xmlns:xlink="http://www.w3.org/1999/xlink" x="0px" y="0px"
	 viewBox="0 0 178.6 178.6" enable-background="new 0 0 178.6 178.6" xml:space="preserve">
<g>
	<circle fill="#7940B1" cx="89.3" cy="89.3" r="89.3"/>
	<g>
		<g>
			<path fill="#FFFFFF" d="M28.6,138.9l4.7-2.8l-0.4-0.9l0.1-0.1l1.3,1l0,0l-1.2,0.9l0,0c0.5-0.1,1-0.1,1.3-0.1
				c0.3,0,0.5,0.1,0.7,0.1s0.3,0.2,0.4,0.3c0.1,0.1,0.2,0.2,0.2,0.4c0,0.1,0,0.2-0.1,0.3c0,0-0.1,0.1-0.1,0.1l-0.5,0.1l0,0l0-0.2
				c0-0.1-0.1-0.3-0.2-0.4c-0.2-0.2-0.4-0.3-0.7-0.3c-0.3,0-0.8,0-1.4,0.1l-3.4,2L28.6,138.9z"/>
			<path fill="#FFFFFF" d="M33.1,144.1c-0.5-0.5-0.7-1-0.6-1.5c0.1-0.5,0.3-1,0.8-1.4c0.4-0.4,0.8-0.7,1.2-0.9
				c0.5-0.2,0.9-0.4,1.4-0.4c0.5-0.1,0.9,0,1.4,0.1c0.4,0.1,0.8,0.3,1.1,0.6c0.3,0.3,0.5,0.6,0.5,0.9c0,0.3-0.1,0.6-0.3,0.7
				c-0.2,0.2-0.5,0.3-0.8,0.3c-0.3,0-0.8-0.1-1.3-0.4c-0.5-0.3-1.2-0.7-1.9-1.2c-0.2,0.2-0.4,0.3-0.6,0.5c-0.4,0.4-0.7,0.8-0.7,1.3
				c0,0.4,0.1,0.8,0.5,1.1c0.5,0.5,1.2,0.6,2.2,0.4l0,0l0,0.1c-0.5,0.2-1,0.3-1.6,0.2C34,144.6,33.5,144.4,33.1,144.1z M38,140.6
				c-0.4-0.4-0.8-0.5-1.4-0.5s-1.1,0.2-1.7,0.6c0.9,0.6,1.6,1,2,1.2c0.5,0.2,0.9,0.1,1.2-0.2c0.1-0.1,0.2-0.3,0.2-0.5
				C38.3,141,38.2,140.8,38,140.6z"/>
			<path fill="#FFFFFF" d="M38,148.5c-0.5-0.4-0.8-1-0.8-1.5s0.3-1.1,0.7-1.7c0.3-0.4,0.7-0.7,1.1-0.9c0.4-0.2,0.8-0.4,1.3-0.5
				c0.4-0.1,0.9-0.1,1.3,0c0.4,0.1,0.8,0.3,1.1,0.5c0.5,0.4,0.8,1,0.8,1.5c0,0.6-0.3,1.1-0.7,1.7c-0.3,0.3-0.6,0.6-1,0.9
				c-0.4,0.2-0.8,0.4-1.3,0.5c-0.4,0.1-0.9,0.1-1.3,0.1S38.4,148.8,38,148.5z M38.4,148.3c0.3,0.3,0.7,0.4,1.1,0.3
				c0.4,0,0.9-0.2,1.3-0.5c0.5-0.3,0.9-0.7,1.3-1.1c0.4-0.5,0.6-0.9,0.7-1.4c0.1-0.4-0.1-0.8-0.5-1.1c-0.3-0.3-0.7-0.4-1.1-0.4
				c-0.4,0-0.9,0.2-1.3,0.4c-0.5,0.3-0.9,0.7-1.3,1.1c-0.4,0.5-0.7,1-0.7,1.4C37.8,147.6,38,148,38.4,148.3z"/>
			<path fill="#FFFFFF" d="M42.2,151.7l3.9-3.8l-0.6-0.8l0.1-0.1l1.5,0.7l0,0l-1,1.2l0,0c0.5-0.2,0.9-0.3,1.2-0.4
				c0.3-0.1,0.5-0.1,0.7,0c0.2,0,0.3,0.1,0.4,0.2c0.1,0.1,0.2,0.2,0.3,0.3c0,0.1,0,0.2,0,0.3c0,0-0.1,0.1-0.1,0.1l-0.5,0.2l0,0
				l-0.1-0.2c0-0.1-0.1-0.2-0.3-0.3c-0.2-0.1-0.5-0.2-0.8-0.2c-0.3,0-0.7,0.2-1.3,0.4l-2.8,2.8L42.2,151.7z"/>
			<path fill="#FFFFFF" d="M49,153.8c-0.2-0.1-0.4-0.3-0.5-0.5c-0.6-0.1-0.9,0.1-1.1,0.4c-0.1,0.2-0.1,0.4,0,0.6
				c0.1,0.2,0.2,0.4,0.5,0.6c0.2,0.2,0.4,0.4,0.7,0.6c0.2,0.2,0.5,0.4,0.6,0.7c0.2,0.2,0.3,0.5,0.4,0.7c0.1,0.2,0,0.5-0.2,0.8
				c-0.2,0.3-0.5,0.6-0.8,0.7c-0.4,0.2-0.8,0.2-1.2,0.1c-0.5-0.1-0.9-0.2-1.5-0.6c-0.6-0.4-1-0.7-1.2-1.1c-0.2-0.4-0.2-0.8,0-1.1
				c0.1-0.2,0.3-0.4,0.4-0.5c0.2-0.1,0.3-0.2,0.6-0.3l1.1,0l0,0c-0.1-0.2-0.2-0.4-0.3-0.6c0-0.2,0-0.4,0.1-0.7
				c0.1-0.1,0.2-0.2,0.3-0.3c0.1-0.1,0.3-0.1,0.4-0.2l1,0.1l0,0c-0.1-0.2-0.2-0.5-0.1-0.8c0-0.3,0.1-0.5,0.3-0.8
				c0.2-0.4,0.5-0.6,0.9-0.9c0.4-0.2,0.8-0.3,1.2-0.3s0.8,0.1,1.2,0.3c0.2,0.1,0.4,0.3,0.5,0.5l1.6,1l-0.2,0.4l-1-0.6l-0.1,0
				c0,0.3-0.1,0.7-0.3,1c-0.2,0.3-0.5,0.6-0.8,0.8c-0.4,0.2-0.8,0.3-1.2,0.4C49.9,154.2,49.4,154.1,49,153.8z M45.4,156
				c-0.2,0.3-0.2,0.7-0.1,1c0.1,0.3,0.4,0.6,0.8,0.9c0.5,0.3,1,0.5,1.5,0.4c0.5-0.1,0.8-0.3,1-0.6c0.1-0.2,0.2-0.5,0.1-0.7
				c-0.1-0.2-0.2-0.4-0.4-0.6c-0.2-0.2-0.4-0.4-0.7-0.6c-0.2-0.2-0.5-0.4-0.7-0.6c-0.4,0-0.7,0.1-1,0.3
				C45.7,155.5,45.5,155.7,45.4,156z M49.4,153.6c0.2,0.1,0.5,0.2,0.8,0.1c0.3,0,0.5-0.2,0.8-0.4c0.3-0.2,0.5-0.4,0.7-0.7
				c0.2-0.4,0.3-0.7,0.3-1c0-0.3-0.2-0.5-0.5-0.7c-0.2-0.2-0.5-0.2-0.8-0.2s-0.5,0.2-0.8,0.4c-0.3,0.2-0.5,0.4-0.6,0.7
				c-0.2,0.3-0.3,0.6-0.3,1C48.9,153.2,49.1,153.4,49.4,153.6z"/>
			<path fill="#FFFFFF" d="M52.9,158.5c-0.3-0.2-0.5-0.4-0.6-0.8c-0.1-0.4,0-0.8,0.3-1.3c0.2-0.5,0.5-0.9,0.9-1.3
				c0.4-0.4,0.8-0.7,1.3-1c0.5-0.3,1-0.4,1.4-0.5c0.5-0.1,0.9,0,1.3,0.2c0.2,0.1,0.4,0.2,0.5,0.4s0.3,0.3,0.4,0.5l0.4-0.1l0.2,0.1
				l-2.7,3.6c-0.2,0.3-0.3,0.5-0.4,0.6c0,0.1,0,0.2,0.1,0.3c0.3,0.2,0.8,0,1.4-0.5l0.1,0.1c-0.5,0.4-0.9,0.7-1.3,0.9
				c-0.4,0.1-0.7,0.1-0.9,0c-0.2-0.1-0.3-0.3-0.4-0.5c0-0.2,0.1-0.6,0.4-0.9l0.2-0.2l0,0c-0.6,0.3-1.1,0.5-1.6,0.6
				C53.7,158.8,53.3,158.7,52.9,158.5z M53.4,156.5c-0.4,0.8-0.4,1.4,0.2,1.6c0.2,0.1,0.5,0.1,0.7,0.1c0.3,0,0.6-0.1,0.9-0.2
				c0.3-0.1,0.6-0.2,0.9-0.4l1.8-2.5c-0.1-0.2-0.1-0.4-0.3-0.6c-0.1-0.2-0.3-0.3-0.5-0.4c-0.3-0.2-0.6-0.2-1-0.1
				c-0.3,0.1-0.7,0.2-1,0.5c-0.3,0.2-0.7,0.5-0.9,0.9C53.9,155.7,53.6,156.1,53.4,156.5z"/>
			<path fill="#FFFFFF" d="M58.7,161.1l2.8-4.7l-0.8-0.6l0-0.1l1.6,0.2l0.1,0l-0.6,1.3l0,0c0.4-0.2,0.8-0.4,1.1-0.5
				c0.3-0.1,0.6-0.2,0.8-0.2c0.2,0,0.5,0,0.7,0.1c0.4,0.2,0.6,0.4,0.7,0.8c0.1,0.4,0,0.9-0.4,1.4l-1.3,2.2c-0.2,0.3-0.3,0.5-0.3,0.7
				c0,0.1,0,0.2,0.2,0.3c0.3,0.1,0.8-0.1,1.3-0.6l0.1,0.1c-0.4,0.5-0.8,0.8-1.2,1c-0.4,0.2-0.7,0.2-0.9,0.1
				c-0.2-0.1-0.4-0.3-0.4-0.5s0.1-0.6,0.3-1l1.5-2.6c0.2-0.3,0.3-0.6,0.2-0.9c0-0.3-0.2-0.5-0.5-0.6c-0.2-0.1-0.4-0.1-0.7-0.1
				c-0.3,0-0.5,0.1-0.8,0.2c-0.3,0.1-0.5,0.2-0.8,0.3l-2.2,3.7L58.7,161.1z"/>
			<path fill="#FFFFFF" d="M66.5,164c-0.2-0.1-0.4-0.2-0.4-0.5c0-0.2,0-0.6,0.3-1l1.9-3.8l-0.9-0.5l0-0.1l1.8,0.2l0.1,0l-2.1,4.1
				c-0.2,0.3-0.2,0.6-0.3,0.7c0,0.1,0.1,0.2,0.2,0.3c0.3,0.1,0.8-0.1,1.3-0.7l0.1,0.1c-0.4,0.5-0.8,0.9-1.1,1.1
				C67.1,164.1,66.8,164.1,66.5,164z M69.8,156.5c-0.2,0-0.3-0.1-0.3-0.3c-0.1-0.1-0.1-0.3,0-0.5c0-0.2,0.1-0.3,0.3-0.3
				c0.1-0.1,0.3-0.1,0.4,0c0.2,0,0.3,0.1,0.4,0.3c0.1,0.1,0.1,0.3,0,0.4c0,0.2-0.1,0.3-0.3,0.4S70,156.6,69.8,156.5z"/>
			<path fill="#FFFFFF" d="M69.6,164.8l-0.1-0.2l4.9-4.2l-2.4-0.5l-0.6,0.8l-0.2,0l0.6-1.5l3.5,0.8l0.1,0.2l-4.2,3.6l2,1.1l0.7-0.9
				l0.2,0l-0.8,1.7l-2.2-1.2c-0.1,0-0.1-0.1-0.2-0.1c-0.1,0-0.1,0-0.2-0.1c-0.3-0.1-0.5,0-0.8,0.2L69.6,164.8z"/>
			<path fill="#FFFFFF" d="M77.5,166.5c-0.7-0.1-1.1-0.4-1.4-0.8c-0.2-0.4-0.3-1-0.2-1.6c0.1-0.5,0.2-1,0.5-1.4
				c0.2-0.5,0.5-0.8,0.9-1.2c0.4-0.3,0.8-0.6,1.2-0.7c0.4-0.2,0.8-0.2,1.3-0.2c0.5,0.1,0.8,0.2,1,0.5c0.2,0.2,0.3,0.5,0.2,0.8
				c0,0.3-0.2,0.5-0.5,0.7c-0.3,0.2-0.7,0.4-1.3,0.5c-0.6,0.1-1.3,0.2-2.3,0.2c-0.1,0.2-0.1,0.5-0.2,0.8c-0.1,0.6,0,1.1,0.2,1.4
				c0.2,0.4,0.6,0.6,1.1,0.6c0.7,0.1,1.4-0.2,2-0.9l0,0l0.1,0.1c-0.3,0.4-0.7,0.8-1.1,1.1C78.4,166.4,78,166.5,77.5,166.5z
				 M79.3,160.8c-0.5-0.1-1,0.1-1.4,0.4c-0.4,0.4-0.8,0.9-1,1.5c1.1,0,1.9-0.1,2.3-0.3c0.5-0.2,0.7-0.4,0.8-0.9c0-0.2,0-0.4-0.1-0.5
				S79.6,160.9,79.3,160.8z"/>
			<path fill="#FFFFFF" d="M83.2,167.1c-0.4,0-0.6-0.2-0.8-0.5c-0.2-0.3-0.3-0.8-0.3-1.3c0-0.5,0.2-1,0.4-1.6c0.2-0.5,0.5-1,0.8-1.4
				c0.3-0.4,0.7-0.7,1.1-1c0.4-0.2,0.9-0.3,1.3-0.3c0.2,0,0.3,0,0.5,0.1c0.2,0,0.3,0.1,0.4,0.2l0.8-3.3l-1-0.3l0-0.1l1.9-0.2l0.1,0
				l-1.9,8.3c-0.1,0.3-0.1,0.6-0.1,0.7c0,0.1,0.1,0.2,0.2,0.2c0.4,0,0.7-0.3,1.1-1l0.2,0.1c-0.3,0.6-0.6,1-0.8,1.3
				c-0.3,0.3-0.6,0.4-0.9,0.4c-0.3,0-0.4-0.1-0.5-0.4c-0.1-0.2-0.1-0.6,0-1l0.1-0.3l0,0c-0.5,0.5-0.9,0.9-1.3,1.2
				C83.9,167,83.5,167.2,83.2,167.1z M82.8,165.1c0,0.5,0,0.8,0.2,1.1s0.3,0.4,0.6,0.4c0.3,0,0.7-0.1,1-0.4c0.4-0.3,0.7-0.6,1.1-1
				l0.7-3.1c-0.2-0.2-0.3-0.3-0.5-0.4c-0.2-0.1-0.4-0.2-0.6-0.2c-0.3,0-0.6,0.1-0.9,0.3c-0.3,0.2-0.5,0.5-0.8,0.8
				c-0.2,0.3-0.4,0.7-0.5,1.2C83,164.1,82.9,164.6,82.8,165.1z"/>
			<path fill="#FFFFFF" d="M95.4,167.2c-0.6,0.1-1.1-0.1-1.5-0.4c-0.4-0.3-0.6-0.7-0.7-1.3c-0.1-0.6,0.1-1.2,0.4-1.7
				c0.3-0.5,0.8-1,1.6-1.5c-0.2-0.3-0.4-0.5-0.6-0.8c-0.2-0.3-0.3-0.6-0.3-1c0-0.4,0-0.9,0.2-1.2c0.2-0.4,0.4-0.7,0.7-0.9
				c0.3-0.2,0.7-0.4,1.1-0.4c0.6-0.1,1,0,1.4,0.3c0.4,0.2,0.6,0.6,0.6,1c0.1,0.5-0.1,1-0.5,1.4c-0.4,0.4-1,0.9-1.7,1.4
				c0.1,0.1,0.1,0.2,0.2,0.3l2.1,2.2c0.4-0.7,0.8-1.5,1.2-2.5l-1.2-0.3l0-0.2l2.8-0.3l0,0.2l-1,0.5c-0.3,0.6-0.5,1.1-0.8,1.6
				c-0.3,0.5-0.5,0.9-0.8,1.3l0.2,0.2c0.3,0.4,0.7,0.6,1,0.8c0.3,0.2,0.6,0.3,1,0.2c0.3,0,0.5-0.2,0.7-0.4l0,0l0.1,0.1
				c-0.1,0.3-0.3,0.5-0.6,0.6c-0.2,0.1-0.5,0.2-0.7,0.2c-0.5,0.1-0.9,0-1.3-0.2c-0.3-0.2-0.7-0.5-1-0.9c-0.4,0.5-0.8,0.9-1.3,1.1
				C96.4,166.9,95.9,167.1,95.4,167.2z M94,165.1c0,0.4,0.2,0.8,0.5,1.1c0.3,0.3,0.7,0.4,1.2,0.3c0.4,0,0.8-0.2,1.1-0.4
				c0.4-0.2,0.7-0.5,1-0.9l-2-2.1c-0.1-0.1-0.2-0.2-0.3-0.3s-0.2-0.2-0.3-0.3c-0.5,0.4-0.9,0.8-1.1,1.3S94,164.6,94,165.1z
				 M94.9,160.1c0,0.3,0.1,0.6,0.3,0.9c0.2,0.3,0.4,0.6,0.7,0.9c0.6-0.5,1-0.9,1.3-1.3c0.2-0.4,0.3-0.8,0.3-1.2
				c0-0.3-0.2-0.6-0.4-0.7c-0.2-0.2-0.5-0.3-0.9-0.2c-0.4,0-0.7,0.2-1,0.5C95,159.2,94.9,159.6,94.9,160.1z"/>
			<path fill="#FFFFFF" d="M107.8,165.1l-0.4-5.4l-1,0l0-0.1l1.5-0.8l0.1,0l0.3,1.5l0.1,0c0.2-0.5,0.3-0.9,0.5-1.2
				c0.2-0.3,0.3-0.4,0.4-0.5c0.1-0.1,0.3-0.2,0.4-0.2c0.2,0,0.3,0,0.4,0c0.1,0,0.2,0.1,0.2,0.2c0,0.1,0,0.1,0,0.2l-0.1,0.5l-0.1,0
				l-0.2-0.1c-0.1,0-0.3-0.1-0.4,0c-0.2,0.1-0.4,0.2-0.6,0.5c-0.2,0.2-0.4,0.7-0.6,1.3l0.3,3.9L107.8,165.1z"/>
			<path fill="#FFFFFF" d="M114.4,163.3c-0.6,0.2-1.2,0.2-1.6-0.1c-0.4-0.3-0.7-0.7-0.9-1.3c-0.2-0.5-0.2-1-0.2-1.5
				c0-0.5,0.1-1,0.3-1.5c0.2-0.5,0.4-0.9,0.7-1.2s0.6-0.6,1-0.7c0.4-0.1,0.8-0.2,1.1,0c0.3,0.1,0.5,0.3,0.5,0.6
				c0.1,0.3,0.1,0.6-0.1,0.9c-0.2,0.3-0.5,0.6-0.9,1c-0.5,0.4-1.1,0.7-2,1.2c0,0.3,0.1,0.5,0.2,0.8c0.2,0.6,0.5,1,0.8,1.2
				c0.4,0.2,0.8,0.3,1.2,0.1c0.7-0.2,1.1-0.8,1.4-1.8l0,0l0.1,0c-0.1,0.5-0.2,1-0.5,1.5C115.3,162.8,114.9,163.1,114.4,163.3z
				 M113.5,157.4c-0.5,0.2-0.8,0.5-1.1,1c-0.2,0.5-0.3,1.1-0.2,1.8c1-0.5,1.6-0.9,2-1.3c0.4-0.4,0.5-0.7,0.3-1.1
				c-0.1-0.2-0.2-0.3-0.4-0.4C114,157.3,113.8,157.3,113.5,157.4z"/>
			<path fill="#FFFFFF" d="M118.3,165.2c-0.2,0.1-0.3,0.1-0.4,0.1c-0.1,0-0.2-0.1-0.2-0.2c0-0.1,0-0.2,0-0.3l0-0.3l0,0l0.2,0
				c0.1,0,0.2,0,0.3,0c0.1,0,0.2-0.1,0.3-0.1c0.3-0.1,0.5-0.5,0.6-1c0-0.5,0-1.2-0.3-2l-1.3-5.2l-1,0.4l-0.2-0.4l1.1-0.4l-0.1-0.5
				c-0.1-0.3-0.1-0.6-0.1-1.1c0-0.4,0.1-0.9,0.2-1.3s0.3-0.9,0.6-1.2c0.3-0.4,0.6-0.6,1-0.8c0.1-0.1,0.3-0.1,0.4-0.1
				c0.2,0,0.3,0.1,0.3,0.1c0,0.1,0,0.1,0,0.2l0,0.4l0,0l-0.3,0c-0.2,0-0.5,0.1-0.8,0.2c-0.4,0.2-0.7,0.5-0.8,0.9
				c-0.1,0.5-0.1,1,0.1,1.8l0.3,1l1.4-0.6l0.2,0.4l-1.4,0.6l1.3,5c0.1,0.3,0.1,0.7,0.1,1.1c0,0.4,0,0.9-0.1,1.3
				c-0.1,0.4-0.2,0.8-0.4,1.2C118.9,164.9,118.6,165.1,118.3,165.2z"/>
			<path fill="#FFFFFF" d="M123.1,159.7l-1.5-5.2l-1,0.2l0-0.1l1.3-1l0,0l0.6,1.4l0,0c0.1-0.5,0.1-1,0.2-1.2
				c0.1-0.3,0.2-0.5,0.3-0.6c0.1-0.1,0.2-0.2,0.3-0.3c0.1-0.1,0.3-0.1,0.4-0.1c0.1,0,0.2,0.1,0.3,0.2c0,0,0,0.1,0,0.2l0,0.5l0,0
				l-0.2,0c-0.1,0-0.3,0-0.4,0.1c-0.2,0.1-0.4,0.3-0.5,0.6c-0.1,0.3-0.2,0.7-0.3,1.4l1.1,3.8L123.1,159.7z"/>
			<path fill="#FFFFFF" d="M129.2,156.6c-0.6,0.3-1.1,0.4-1.6,0.2c-0.5-0.2-0.9-0.6-1.2-1.1c-0.3-0.4-0.4-0.9-0.5-1.4s-0.1-1,0-1.5
				c0.1-0.5,0.2-0.9,0.4-1.3c0.2-0.4,0.5-0.7,0.9-0.9c0.4-0.2,0.7-0.3,1-0.2c0.3,0.1,0.5,0.2,0.6,0.4c0.1,0.2,0.2,0.5,0.1,0.9
				c-0.1,0.3-0.3,0.7-0.7,1.2c-0.4,0.4-0.9,1-1.7,1.5c0.1,0.2,0.2,0.5,0.3,0.7c0.3,0.5,0.7,0.9,1,1c0.4,0.1,0.8,0.1,1.2-0.2
				c0.6-0.4,0.9-1,1-2l0,0l0.1,0c0,0.5,0,1.1-0.2,1.6C130,156,129.6,156.4,129.2,156.6z M127.1,151.1c-0.4,0.3-0.7,0.7-0.8,1.2
				c-0.1,0.5-0.1,1.2,0.1,1.8c0.8-0.7,1.4-1.2,1.7-1.7c0.3-0.4,0.3-0.8,0.1-1.2c-0.1-0.2-0.2-0.3-0.4-0.3
				C127.6,150.9,127.4,150.9,127.1,151.1z"/>
			<path fill="#FFFFFF" d="M134,153.6c-0.3,0.2-0.6,0.4-0.9,0.4c-0.3,0-0.5,0-0.7,0c-0.2,0-0.3-0.1-0.3-0.2c0,0,0-0.1,0-0.1
				s0-0.1,0-0.2l0.1-0.3l0.1,0l0.3,0.2c0.2,0.1,0.5,0.2,0.7,0.1s0.4-0.1,0.6-0.2c0.3-0.2,0.5-0.5,0.6-0.8c0.1-0.3,0-0.6-0.2-0.9
				c-0.2-0.3-0.4-0.4-0.6-0.5c-0.2-0.1-0.6-0.1-1,0c-0.5,0-0.9,0-1.2-0.1s-0.5-0.3-0.7-0.6c-0.2-0.2-0.2-0.5-0.2-0.8
				c0-0.3,0.1-0.6,0.2-0.9c0.1-0.3,0.4-0.6,0.6-0.7c0.3-0.2,0.5-0.3,0.8-0.3c0.2,0,0.5,0,0.7,0c0.1,0,0.2,0.1,0.3,0.2
				c0,0,0,0.1,0.1,0.1c0,0.1,0,0.1,0,0.2l-0.1,0.2l-0.1,0l-0.4-0.1c-0.2-0.1-0.4-0.1-0.6-0.1c-0.2,0-0.4,0.1-0.5,0.2
				c-0.3,0.2-0.4,0.4-0.5,0.7c0,0.3,0,0.5,0.2,0.7c0.2,0.2,0.4,0.4,0.6,0.5c0.2,0.1,0.5,0.1,0.8,0.1c0.5,0,0.9,0,1.2,0
				c0.3,0.1,0.6,0.3,0.8,0.6c0.2,0.3,0.3,0.5,0.3,0.9c0,0.3-0.1,0.7-0.2,1C134.6,153.1,134.3,153.4,134,153.6z"/>
			<path fill="#FFFFFF" d="M138.1,150.5l-0.6,0.5l-4.6-8.1l-0.9,0.4l-0.1-0.1l1.1-1.4l0.1-0.1l2.6,4.7l0,0c0-0.5,0.1-0.9,0.1-1.2
				c0.1-0.3,0.1-0.6,0.2-0.8c0.1-0.2,0.3-0.4,0.5-0.6c0.3-0.3,0.7-0.3,1.1-0.2c0.4,0.1,0.7,0.5,1,1l1.3,2.3c0.2,0.3,0.3,0.5,0.4,0.6
				c0.1,0.1,0.2,0.1,0.3,0c0.3-0.2,0.3-0.7,0.1-1.4l0.2-0.1c0.2,0.6,0.3,1.1,0.2,1.5c0,0.4-0.2,0.7-0.4,0.9
				c-0.2,0.2-0.4,0.2-0.6,0.1c-0.2-0.1-0.4-0.4-0.7-0.8l-1.5-2.6c-0.2-0.3-0.4-0.5-0.6-0.6c-0.2-0.1-0.5-0.1-0.8,0.2
				c-0.3,0.2-0.4,0.5-0.5,0.9c-0.1,0.4-0.1,0.8-0.2,1.2L138.1,150.5z"/>
			<path fill="#FFFFFF" d="M144.8,144.8c-0.5,0.5-1,0.7-1.5,0.6c-0.5-0.1-1-0.3-1.4-0.8c-0.4-0.4-0.7-0.8-0.9-1.3
				c-0.2-0.5-0.3-0.9-0.4-1.4c0-0.5,0-0.9,0.1-1.4c0.1-0.4,0.3-0.8,0.6-1.1c0.3-0.3,0.6-0.5,0.9-0.5c0.3,0,0.6,0.1,0.7,0.3
				c0.2,0.2,0.3,0.5,0.3,0.8c0,0.3-0.1,0.8-0.4,1.3c-0.3,0.5-0.7,1.2-1.3,1.9c0.2,0.2,0.3,0.4,0.5,0.6c0.4,0.4,0.8,0.7,1.3,0.7
				c0.4,0,0.8-0.1,1.2-0.4c0.5-0.5,0.7-1.2,0.5-2.2l0,0l0.1,0c0.2,0.5,0.2,1,0.2,1.6C145.3,144,145.1,144.5,144.8,144.8z
				 M141.4,139.9c-0.4,0.4-0.5,0.8-0.5,1.4c0,0.6,0.2,1.1,0.6,1.7c0.6-0.9,1-1.5,1.2-2c0.2-0.5,0.1-0.9-0.2-1.2
				c-0.1-0.1-0.3-0.2-0.5-0.2C141.8,139.6,141.6,139.7,141.4,139.9z"/>
			<path fill="#FFFFFF" d="M148.7,140.7c-0.2,0.3-0.5,0.4-0.9,0.4c-0.4,0-0.8-0.2-1.2-0.6c-0.4-0.3-0.7-0.7-1-1.2
				c-0.3-0.5-0.5-1-0.6-1.5c-0.1-0.5-0.2-1-0.1-1.5c0.1-0.5,0.2-0.9,0.5-1.2c0.1-0.1,0.2-0.2,0.4-0.3s0.3-0.2,0.4-0.2l-2.2-2.6
				l-0.9,0.6l-0.1-0.1l1-1.7l0-0.1l5.4,6.5c0.2,0.3,0.4,0.4,0.5,0.5c0.1,0.1,0.2,0,0.3-0.1c0.2-0.3,0.2-0.7-0.1-1.4l0.2-0.1
				c0.3,0.6,0.5,1.1,0.5,1.5c0,0.4-0.1,0.7-0.2,0.9c-0.2,0.2-0.4,0.3-0.6,0.2c-0.2-0.1-0.5-0.3-0.8-0.6l-0.2-0.2l0,0
				c0.1,0.7,0.2,1.3,0.2,1.7C149.1,140,149,140.4,148.7,140.7z M146.9,139.7c0.4,0.3,0.7,0.5,1,0.5c0.3,0,0.5-0.1,0.7-0.3
				c0.2-0.2,0.3-0.6,0.3-1c0-0.4,0-0.9-0.2-1.4l-2-2.4c-0.2,0-0.5,0.1-0.6,0.1c-0.2,0.1-0.3,0.2-0.5,0.4c-0.2,0.3-0.3,0.6-0.4,0.9
				c0,0.3,0,0.7,0.2,1.1c0.1,0.4,0.3,0.8,0.6,1.1C146.2,139,146.5,139.4,146.9,139.7z"/>
		</g>
	</g>
	<g>
		<g>
			<path fill="#FFFFFF" stroke="#FFFFFF" stroke-width="0.25" stroke-miterlimit="10" d="M29.9,62.9c-1.1,0-2.1-0.3-3.1-0.8
				c-1-0.5-1.8-1.3-2.5-2.4s-1-2.5-1-4.2c0-1.7,0.3-3.2,1-4.3c0.6-1.1,1.5-1.9,2.5-2.5c1-0.5,2.1-0.8,3.1-0.8c1.1,0,2.1,0.3,3.1,0.8
				c1,0.5,1.8,1.4,2.5,2.5c0.6,1.1,1,2.5,1,4.3c0,1.7-0.3,3.1-1,4.2c-0.6,1.1-1.5,1.9-2.5,2.4C32,62.6,31,62.9,29.9,62.9z
				 M29.9,62.3c1.7,0,3-0.6,4.1-1.8c1-1.2,1.6-2.9,1.6-5c0-2.1-0.5-3.8-1.6-5.1c-1-1.3-2.4-1.9-4.1-1.9s-3,0.6-4.1,1.9
				s-1.5,3-1.5,5.1c0,2.1,0.5,3.8,1.5,5S28.2,62.3,29.9,62.3z"/>
			<path fill="#FFFFFF" stroke="#FFFFFF" stroke-width="0.25" stroke-miterlimit="10" d="M39.7,62.5v-0.6l2.7-0.2c0-0.5,0-1.1,0-1.8
				s0-1.4,0-2c0-0.7,0-1.3,0-1.8v-1.5c0-1.1,0-2.1,0-3.1c0-1,0-1.8-0.1-2.6h-2.8v-0.6l3.4-0.4l0.3,0.2l0.1,3.9
				c0.4-1.2,1.1-2.3,2.1-3.1c0.9-0.8,2-1.2,3-1.2c0.5,0,1,0.1,1.3,0.2c0.4,0.2,0.6,0.4,0.7,0.6c0,0.6-0.3,0.9-0.9,0.9
				c-0.3,0-0.5-0.1-0.7-0.2c-0.2-0.1-0.5-0.3-0.8-0.6l-0.3-0.2c-1.8,0.4-3.3,2-4.4,4.6v3c0,0.5,0,1.1,0,1.8c0,0.7,0,1.4,0,2
				s0,1.3,0,1.8l2.9,0.2v0.6H39.7z"/>
			<path fill="#FFFFFF" stroke="#FFFFFF" stroke-width="0.25" stroke-miterlimit="10" d="M57.6,57.9c-0.8,0-1.6-0.2-2.3-0.5
				c-0.5,0.5-0.9,1-1.2,1.4c-0.3,0.4-0.4,0.9-0.4,1.4c0,0.4,0.2,0.8,0.7,1.1c0.4,0.3,1.2,0.5,2.2,0.5h4.3c1.3,0,2.2,0.3,2.9,0.9
				c0.7,0.6,1,1.4,1,2.6c0,0.8-0.2,1.6-0.7,2.3c-0.5,0.7-1.2,1.3-2.2,1.8c-1,0.5-2.2,0.7-3.8,0.7c-1.9,0-3.4-0.4-4.5-1.1
				s-1.7-1.7-1.7-2.9c0-0.8,0.2-1.5,0.7-2.1c0.5-0.6,1.1-1.1,1.8-1.5c-0.4-0.2-0.8-0.4-1.1-0.7c-0.3-0.3-0.4-0.7-0.4-1.2
				c0-0.7,0.2-1.3,0.6-1.7s0.9-1,1.4-1.5c-0.7-0.4-1.2-1-1.6-1.8s-0.6-1.6-0.6-2.6c0-1.5,0.5-2.7,1.4-3.6s2.1-1.4,3.6-1.4
				c1.3,0,2.3,0.3,3.2,1l3.6-0.8l0.5,0.3v0.9h-3.5c0.9,0.9,1.3,2.1,1.3,3.6c0,1.5-0.5,2.7-1.4,3.7C60.3,57.4,59.1,57.9,57.6,57.9z
				 M52.8,65.7c0,1.1,0.5,2,1.4,2.6c0.9,0.6,2.2,0.9,3.9,0.9c1.9,0,3.3-0.4,4.3-1.2c1-0.8,1.4-1.7,1.4-2.8c0-0.7-0.2-1.3-0.7-1.8
				c-0.4-0.5-1.3-0.7-2.6-0.7h-3.8c-0.3,0-0.7,0-1,0c-0.3,0-0.7-0.1-1-0.1c-0.7,0.4-1.2,0.9-1.5,1.3C53,64.3,52.8,64.9,52.8,65.7z
				 M57.6,57.2c1.2,0,2.2-0.4,2.9-1.2c0.8-0.8,1.2-1.9,1.2-3.2c0-1.3-0.4-2.4-1.2-3.2c-0.8-0.8-1.8-1.2-2.9-1.2
				c-1.2,0-2.2,0.4-2.9,1.2c-0.8,0.8-1.2,1.9-1.2,3.2c0,1.3,0.4,2.4,1.2,3.2C55.4,56.8,56.4,57.2,57.6,57.2z"/>
			<path fill="#FFFFFF" stroke="#FFFFFF" stroke-width="0.25" stroke-miterlimit="10" d="M78.8,62.9c-0.7,0-1.2-0.3-1.5-0.8
				c-0.3-0.5-0.5-1.3-0.6-2.3c-0.9,1-1.8,1.8-2.6,2.3c-0.8,0.5-1.7,0.8-2.8,0.8c-1.1,0-2-0.3-2.7-0.9s-1.1-1.5-1.1-2.6
				c0-1.1,0.4-2,1.2-2.7c0.8-0.7,1.9-1.3,3.4-1.8c0.8-0.2,1.5-0.5,2.3-0.6c0.8-0.2,1.5-0.4,2.2-0.5v-1c0-1.1-0.1-2-0.4-2.6
				c-0.3-0.6-0.7-1-1.2-1.3c-0.5-0.2-1.2-0.3-2-0.3c-1.2,0-2.2,0.3-3.1,0.9l-0.5,1.8c-0.1,0.4-0.3,0.7-0.7,0.7
				c-0.3,0-0.6-0.2-0.7-0.6c0.3-1.1,0.9-2,1.8-2.6c0.9-0.6,2-0.9,3.3-0.9c1.5,0,2.6,0.3,3.3,1c0.7,0.7,1.1,1.8,1.1,3.3v6.9
				c0,1.2,0.1,2,0.4,2.4c0.3,0.4,0.6,0.6,1.1,0.6c0.2,0,0.4,0,0.6-0.1c0.2-0.1,0.4-0.2,0.7-0.4l0.3,0.4c-0.2,0.2-0.5,0.4-0.9,0.6
				C79.5,62.8,79.1,62.9,78.8,62.9z M68.5,59.1c0,0.9,0.3,1.7,0.8,2.2s1.3,0.8,2.2,0.8c0.8,0,1.6-0.2,2.4-0.7
				c0.8-0.5,1.7-1.2,2.7-2.3v-4.9c-0.7,0.2-1.5,0.4-2.3,0.6s-1.5,0.5-2.2,0.7C69.7,56.3,68.5,57.6,68.5,59.1z"/>
			<path fill="#FFFFFF" stroke="#FFFFFF" stroke-width="0.25" stroke-miterlimit="10" d="M82.8,62.5v-0.6l2.7-0.2c0-0.5,0-1.1,0-1.8
				s0-1.4,0-2c0-0.7,0-1.3,0-1.8v-1.5c0-1.1,0-2.1,0-3.1c0-1,0-1.8-0.1-2.6h-2.8v-0.6l3.4-0.4l0.3,0.2l0.1,3.1
				c1.1-1.3,2.2-2.2,3.2-2.7c1-0.5,2-0.8,2.9-0.8c1.1,0,2,0.4,2.7,1.1c0.7,0.8,1,2.1,1,4v3.2c0,0.5,0,1.2,0,1.8c0,0.7,0,1.3,0,2
				c0,0.7,0,1.3,0,1.8l2.5,0.2v0.6h-6.2v-0.6l2.7-0.2c0-0.5,0-1.1,0-1.8c0-0.7,0-1.3,0-2c0-0.7,0-1.3,0-1.8v-3.2
				c0-1.6-0.3-2.7-0.9-3.3s-1.3-1-2.2-1c-0.4,0-0.9,0.1-1.5,0.3c-0.6,0.2-1.3,0.5-2,1c-0.7,0.5-1.5,1.2-2.3,2.1v4.1
				c0,0.5,0,1.1,0,1.8c0,0.7,0,1.4,0,2s0,1.3,0,1.8l2.5,0.2v0.6H82.8z"/>
			<path fill="#FFFFFF" stroke="#FFFFFF" stroke-width="0.25" stroke-miterlimit="10" d="M101.6,62.5v-0.6l2.7-0.2
				c0-0.5,0-1.1,0-1.8s0-1.4,0-2c0-0.7,0-1.3,0-1.8v-1.5c0-1,0-1.9,0-2.9c0-1,0-1.9-0.1-2.8h-2.9v-0.6l3.5-0.4l0.3,0.2l-0.1,3.5v4.4
				c0,0.5,0,1.1,0,1.8c0,0.7,0,1.4,0,2c0,0.7,0,1.3,0,1.8l2.5,0.2v0.6H101.6z M104.7,42.9c-0.3,0-0.5-0.1-0.7-0.3
				c-0.2-0.2-0.3-0.4-0.3-0.7c0-0.3,0.1-0.5,0.3-0.7c0.2-0.2,0.4-0.3,0.7-0.3c0.3,0,0.5,0.1,0.7,0.3c0.2,0.2,0.3,0.4,0.3,0.7
				c0,0.3-0.1,0.5-0.3,0.7C105.1,42.8,104.9,42.9,104.7,42.9z"/>
			<path fill="#FFFFFF" stroke="#FFFFFF" stroke-width="0.25" stroke-miterlimit="10" d="M111.3,62.5v-0.6l9.5-13.1h-8.4l-0.5,3.3
				l-0.6-0.1l0.2-3.8h10.4v0.6l-9.5,13.1h8.8l0.6-3.6h0.6l-0.2,4.2H111.3z"/>
			<path fill="#FFFFFF" stroke="#FFFFFF" stroke-width="0.25" stroke-miterlimit="10" d="M132.2,62.9c-1.1,0-2.2-0.3-3.2-0.8
				c-1-0.5-1.9-1.4-2.5-2.5c-0.7-1.1-1-2.6-1-4.3c0-1.5,0.3-2.9,0.9-4c0.6-1.1,1.4-2,2.4-2.6c1-0.6,2-0.9,3.2-0.9
				c1.2,0,2.2,0.3,3,0.8c0.8,0.5,1.4,1.2,1.9,2.1c0.4,0.9,0.6,1.8,0.6,2.8c0,0.7-0.1,1.3-0.2,1.7l-10.8,0c0,1.7,0.3,3,0.9,4
				c0.6,1,1.3,1.8,2.1,2.2c0.9,0.5,1.8,0.7,2.7,0.7c1.9,0,3.5-0.6,4.8-1.9l0.3,0.3c-0.6,0.8-1.4,1.3-2.3,1.8
				C134.1,62.7,133.2,62.9,132.2,62.9z M131.9,48.4c-1,0-2,0.3-2.8,0.8c-0.8,0.6-1.4,1.3-1.9,2.2c-0.5,0.9-0.7,1.9-0.8,3l9.4,0
				c0.2,0,0.4-0.1,0.5-0.3c0.1-0.2,0.1-0.5,0.1-0.9c0-0.9-0.2-1.6-0.5-2.4c-0.3-0.7-0.9-1.3-1.5-1.8
				C133.8,48.6,132.9,48.4,131.9,48.4z"/>
			<path fill="#FFFFFF" stroke="#FFFFFF" stroke-width="0.25" stroke-miterlimit="10" d="M151.5,62.7l0.1-2.3
				c-0.7,0.9-1.5,1.6-2.3,1.9c-0.9,0.4-1.7,0.6-2.6,0.6c-1.2,0-2.2-0.3-3.1-0.9c-0.9-0.6-1.6-1.5-2.1-2.6c-0.5-1.1-0.8-2.4-0.8-3.8
				c0-1.6,0.3-3,0.9-4.2c0.6-1.2,1.3-2.1,2.3-2.7c1-0.6,2.1-0.9,3.3-0.9c0.7,0,1.5,0.2,2.3,0.6c0.8,0.4,1.5,1,2.2,1.8v-9.5h-2.8
				v-0.6l3.3-0.4l0.4,0.2l-0.1,4.2v17.5l3.2,0.2v0.6L151.5,62.7z M141.7,55.6c0,1.4,0.2,2.6,0.7,3.6c0.5,1,1.1,1.7,1.8,2.2
				c0.8,0.5,1.6,0.7,2.6,0.7s1.8-0.2,2.6-0.6c0.8-0.4,1.5-1.1,2.3-2V51c-0.7-0.8-1.4-1.4-2.1-1.8c-0.7-0.4-1.5-0.6-2.4-0.6
				c-1,0-1.9,0.3-2.8,0.8c-0.8,0.5-1.5,1.3-2,2.3S141.7,54,141.7,55.6z"/>
		</g>
	</g>
	<g>
		<g>
			<path fill="#FFFFFF" stroke="#FFFFFF" stroke-width="0.2" stroke-miterlimit="10" d="M38.9,114.2c-1.9,2.5-4.9,4.1-8.3,4.1
				c-5.7,0-10.4-4.6-10.4-10.4s4.6-10.4,10.4-10.4c3.6,0,6.8,1.8,8.6,4.7l-3.3,2.5c-1.1-1.8-3.1-3.1-5.4-3.1c-3.4,0-6.2,2.8-6.2,6.2
				s2.8,6.2,6.2,6.2c1.6,0,3-0.6,4.1-1.6v-1.2h-4.8v-4.1h9V114.2z M35.4,112.9c-1.2,1.2-3,2-4.8,2c-3.8,0-6.9-3.1-6.9-6.9
				s3.1-6.9,6.9-6.9c2.3,0,4.3,1.1,5.5,2.8l2.2-1.7c-1.8-2.3-4.6-3.8-7.7-3.8c-5.3,0-9.7,4.3-9.7,9.7c0,5.3,4.3,9.7,9.7,9.7
				c3.1,0,5.8-1.4,7.6-3.7v-6h-7.6v2.8h4.8V112.9z"/>
			<path fill="#FFFFFF" stroke="#FFFFFF" stroke-width="0.2" stroke-miterlimit="10" d="M68.5,118.4h-4.9l-3.6-5.5h-3.3v5.5h-4.1
				V97.6h7.6c4.2,0,7.6,3.4,7.6,7.6c0,2.7-1.4,5.1-3.6,6.5L68.5,118.4z M63.1,111.5c2.3-1.1,3.9-3.5,3.9-6.2c0-3.8-3.1-6.9-6.9-6.9
				h-6.9v19.3H56v-5.5h4.1c0.1,0,0.1,0,0.2,0l3.6,5.5h3.3L63.1,111.5z M56,101.1h4.1c2.3,0,4.1,1.8,4.1,4.1s-1.8,4.1-4.1,4.1H56
				V101.1z M60.1,108.7c1.9,0,3.5-1.5,3.5-3.5s-1.5-3.5-3.5-3.5h-3.5v6.9H60.1z"/>
			<path fill="#FFFFFF" stroke="#FFFFFF" stroke-width="0.2" stroke-miterlimit="10" d="M95.2,114.9H84.6l-1.9,3.5H78l11.9-21.8
				l12,21.8h-4.7L95.2,114.9z M97.6,117.7h3.1L89.9,98l-10.8,19.7h3.1l1.9-3.5h11.5L97.6,117.7z M85.7,111.5l4.2-7.8l4.3,7.8H85.7z
				 M93,110.8l-3.1-5.6l-3.1,5.6H93z"/>
			<path fill="#FFFFFF" stroke="#FFFFFF" stroke-width="0.2" stroke-miterlimit="10" d="M120.4,97.6c3.4,0,6.4,1.6,8.3,4.1l0.4,0.6
				l-3.3,2.5l-0.4-0.6c-1.1-1.5-2.9-2.5-5-2.5c-3.4,0-6.2,2.8-6.2,6.2s2.8,6.2,6.2,6.2c2,0,3.8-1,5-2.5l0.4-0.6l3.3,2.5l-0.4,0.6
				c-1.9,2.5-4.9,4.1-8.3,4.1c-5.7,0-10.4-4.6-10.4-10.4S114.7,97.6,120.4,97.6z M113.5,108c0-3.8,3.1-6.9,6.9-6.9
				c2.3,0,4.3,1.1,5.5,2.8l2.2-1.7c-1.8-2.3-4.6-3.8-7.7-3.8c-5.3,0-9.7,4.3-9.7,9.7c0,5.3,4.3,9.7,9.7,9.7c3.1,0,5.9-1.5,7.7-3.8
				l-2.2-1.7c-1.3,1.7-3.3,2.8-5.5,2.8C116.6,114.9,113.5,111.8,113.5,108z"/>
			<path fill="#FFFFFF" stroke="#FFFFFF" stroke-width="0.2" stroke-miterlimit="10" d="M141.2,97.6h15.2v4.1h-11v6.2h8.3v4.1h-8.3
				v2.1h11v4.1h-15.2V97.6z M155.7,101.1v-2.8h-13.8v19.3h13.8v-2.8h-11v-3.5h8.3v-2.8h-8.3v-7.6H155.7z"/>
		</g>
	</g>
	<g>
		<g>
			<path fill="#FFFFFF" d="M77.8,85.6l-1.3-6.7l-1.2-0.3v-0.1l2-0.4h0.1l1,5.9h0.1l2.6-5.8h0.2l1.2,5.9h0.1l1.1-2.1
				c0.3-0.6,0.5-1.1,0.7-1.4s0.2-0.7,0.2-0.9c0-0.2,0-0.3-0.1-0.4c-0.1-0.1-0.2-0.2-0.3-0.3L84,78.8v-0.1l0.3-0.4
				c0.1-0.1,0.1-0.2,0.2-0.2s0.1,0,0.2,0c0.2,0,0.4,0.1,0.6,0.4c0.2,0.3,0.2,0.5,0.2,0.8c0,0.2-0.1,0.5-0.2,0.9
				c-0.1,0.4-0.4,0.9-0.8,1.5l-2.3,4h-0.2l-1.2-5.4l-2.6,5.4H77.8z"/>
			<path fill="#FFFFFF" d="M87.5,85.7c-0.3,0-0.5-0.1-0.7-0.4c-0.1-0.3-0.1-0.7,0-1.3l0.9-5.1l-1.2-0.3v-0.1l2.2-0.4h0.1l-1,5.6
				c-0.1,0.4-0.1,0.7-0.1,0.9s0.1,0.3,0.3,0.3c0.4,0,0.9-0.4,1.2-1.3l0.2,0.1c-0.3,0.8-0.6,1.3-1,1.7S87.9,85.7,87.5,85.7z
				 M88.7,75.7c-0.2,0-0.4-0.1-0.5-0.2S88,75.1,88,74.9c0-0.2,0.1-0.4,0.2-0.5c0.1-0.1,0.3-0.2,0.5-0.2c0.2,0,0.4,0.1,0.5,0.2
				c0.1,0.1,0.2,0.3,0.2,0.5c0,0.2-0.1,0.4-0.2,0.5S88.9,75.7,88.7,75.7z"/>
			<path fill="#FFFFFF" d="M92.1,85.7c-0.3,0-0.6-0.1-0.8-0.3c-0.2-0.2-0.3-0.5-0.3-0.9c0-0.1,0-0.2,0-0.3c0-0.1,0-0.2,0-0.3
				l0.9-5.2h-1.2v-0.1l1.4-0.5l1.1-1.8h0.1l-0.3,1.8h2v0.6H93l-0.8,4.5c0,0.2,0,0.3-0.1,0.4c0,0.1,0,0.2,0,0.3c0,0.3,0,0.4,0.1,0.6
				s0.2,0.2,0.4,0.2c0.3,0,0.5-0.1,0.8-0.4c0.3-0.3,0.6-0.7,0.8-1.3l0.2,0.1c-0.3,0.9-0.7,1.6-1.1,2C92.9,85.5,92.5,85.7,92.1,85.7z
				"/>
			<path fill="#FFFFFF" d="M96.8,85.6h-1l2-11.3l-1.1-0.3v-0.1l2.2-0.4H99l-1.1,6.5h0c0.4-0.4,0.7-0.8,1-1c0.3-0.3,0.6-0.4,0.9-0.6
				c0.3-0.1,0.6-0.2,0.9-0.2c0.5,0,0.9,0.2,1.2,0.6c0.3,0.4,0.3,1,0.2,1.8l-0.6,3.2c-0.1,0.4-0.1,0.7-0.1,0.9s0.1,0.3,0.3,0.3
				c0.4,0,0.9-0.4,1.2-1.3l0.2,0.1c-0.3,0.8-0.6,1.3-1,1.7s-0.7,0.5-1,0.5c-0.3,0-0.5-0.1-0.7-0.4c-0.1-0.3-0.1-0.7,0-1.3l0.6-3.7
				c0.1-0.4,0-0.8-0.1-1.1s-0.4-0.5-0.9-0.5c-0.4,0-0.8,0.2-1.2,0.5c-0.4,0.3-0.8,0.7-1.1,1.1L96.8,85.6z"/>
		</g>
	</g>
	<line fill="none" stroke="#FFFFFF" stroke-miterlimit="10" x1="56.8" y1="134.3" x2="121.8" y2="134.3"/>
</g>
</svg>
