<?xml version="1.0" encoding="utf-8"?>
<!-- Generator: Adobe Illustrator 21.1.0, SVG Export Plug-In . SVG Version: 6.00 Build 0)  -->
<svg version="1.1" id="Layer_1" xmlns="http://www.w3.org/2000/svg" xmlns:xlink="http://www.w3.org/1999/xlink" x="0px" y="0px"
	 viewBox="0 0 120.4 112.4" enable-background="new 0 0 120.4 112.4" xml:space="preserve">
<g enable-background="new    ">
	<path fill="#F2F3FA" d="M50.8,8.6l5.5,7.8c-13.9,11.3-22,19.4-28.4,34.8l8.4,7.5C45,66.3,47.6,73,47.6,80.2
		c0,11.6-6.7,17.1-17.1,17.1c-5.8,0-11-1.5-15.7-5.8c-2.6-6.4-4.1-13.3-4.1-20.6C10.7,45.7,29,22.5,50.8,8.6z M109.6,8.6l5.5,7.8
		c-13.9,11.3-22,19.4-28.4,34.8l8.4,7.5c8.7,7.5,11.3,14.2,11.3,21.5c0,11.6-6.7,17.1-17.1,17.1c-5.8,0-11-1.5-15.7-5.8
		c-2.6-6.4-4.1-13.3-4.1-20.6C69.6,45.7,87.9,22.5,109.6,8.6z"/>
</g>
</svg>
