<?xml version="1.0" encoding="utf-8"?>
<!-- Generator: Adobe Illustrator 21.1.0, SVG Export Plug-In . SVG Version: 6.00 Build 0)  -->
<svg version="1.1" id="Layer_1" xmlns="http://www.w3.org/2000/svg" xmlns:xlink="http://www.w3.org/1999/xlink" x="0px" y="0px"
	 viewBox="0 0 120.4 112.4" enable-background="new 0 0 120.4 112.4" xml:space="preserve">
<g enable-background="new    ">
	<path fill="#F2F3FA" d="M13.4,101.3l-5.5-7.8C21.9,82.1,30,74,36.4,58.6l-8.4-7.5c-8.7-7.5-11.3-14.2-11.3-21.5
		c0-11.6,6.7-17.1,17.1-17.1c5.8,0,11,1.5,15.7,5.8c2.6,6.4,4.1,13.3,4.1,20.6C53.5,64.2,35.2,87.4,13.4,101.3z M72.3,101.3
		l-5.5-7.8c13.9-11.3,22-19.4,28.4-34.8l-8.4-7.5c-8.7-7.5-11.3-14.2-11.3-21.5c0-11.6,6.7-17.1,17.1-17.1c5.8,0,11,1.5,15.7,5.8
		c2.6,6.4,4.1,13.3,4.1,20.6C112.4,64.2,94.1,87.4,72.3,101.3z"/>
</g>
</svg>
