<?xml version="1.0" encoding="utf-8"?>
<!-- Generator: Adobe Illustrator 21.1.0, SVG Export Plug-In . SVG Version: 6.00 Build 0)  -->
<svg version="1.1" id="Layer_1" xmlns="http://www.w3.org/2000/svg" xmlns:xlink="http://www.w3.org/1999/xlink" x="0px" y="0px"
	 viewBox="0 0 434.1 498.9" style="enable-background:new 0 0 434.1 498.9;" xml:space="preserve">
<style type="text/css">
	.st0{fill:#FFFFFF;}
	.st1{fill:#F2F3FA;}
</style>
<g>
	<rect class="st0" width="434.1" height="498.9"/>
</g>
<g>
	<path class="st1" d="M66.4,37.2l5.4,7.6C58.1,55.9,50.3,63.8,44,78.9l8.2,7.3c8.5,7.3,11.1,13.9,11.1,21c0,11.3-6.6,16.8-16.8,16.8
		c-5.7,0-10.7-1.4-15.3-5.7c-2.6-6.3-4-13-4-20.1C27.2,73.5,45.1,50.8,66.4,37.2z M123.9,37.2l5.4,7.6c-13.5,11.1-21.5,18.9-27.7,34
		l8.2,7.3c8.5,7.3,11.1,13.9,11.1,21c0,11.3-6.6,16.8-16.8,16.8c-5.7,0-10.7-1.4-15.3-5.7c-2.6-6.3-4-13-4-20.1
		C84.8,73.5,102.7,50.8,123.9,37.2z"/>
</g>
<g>
	<path class="st1" d="M304.3,448.8l-5.4-7.6c13.5-11.1,21.5-18.9,27.7-34l-8.2-7.3c-8.5-7.3-11.1-13.9-11.1-21
		c0-11.3,6.6-16.8,16.8-16.8c5.7,0,10.7,1.4,15.3,5.7c2.6,6.3,4,13,4,20.1C343.4,412.4,325.6,435.1,304.3,448.8z M361.9,448.8
		l-5.4-7.6c13.5-11.1,21.5-18.9,27.7-34l-8.2-7.3c-8.5-7.3-11.1-13.9-11.1-21c0-11.3,6.6-16.8,16.8-16.8c5.7,0,10.7,1.4,15.3,5.7
		c2.6,6.3,4,13,4,20.1C401,412.4,383.1,435.1,361.9,448.8z"/>
</g>
</svg>
